# xmcd
#
# Track frame offsets:
#	150
#	11795
#	24972
#	35645
#	47207
#	57422
#	65220
#	76010
#	88565
#	103762
#	115202
#	127875
#
# Disc length: 1875 seconds
#
# Revision: 1
# Processed by: cddbd v1.5.1PL0 Copyright (c) Steve Scherf et al.
# Submitted via: CDex 1.50Beta5
#
DISCID=9b07510c
DTITLE=東京パノラマ マンボ ボーイズ - 南国の夜
DYEAR=1991
DGENRE=Latin
TTITLE0=バナナ・ボート・ソング
TTITLE1=フラ・マンボ
TTITLE2=月影のキューバ
TTITLE3=バンブル・ブギ・マンボ
TTITLE4=キューバン・ロックンロール
TTITLE5=スクスク
TTITLE6=バシート・デ・チャチャチャ
TTITLE7=パッパのパチャンガ
TTITLE8=島のタムレ
TTITLE9=さらばジャマイカ
TTITLE10=アロハオエ・マンボ
TTITLE11=南国の夜
EXTD=
EXTT0=
EXTT1=
EXTT2=
EXTT3=
EXTT4=
EXTT5=
EXTT6=
EXTT7=
EXTT8=
EXTT9=
EXTT10=
EXTT11=
PLAYORDER=
